<?xml version="1.0" standalone="no"?><!DOCTYPE svg PUBLIC "-//W3C//DTD SVG 1.1//EN" "http://www.w3.org/Graphics/SVG/1.1/DTD/svg11.dtd"><svg t="1588304160670" class="icon" viewBox="0 0 1024 1024" version="1.1" xmlns="http://www.w3.org/2000/svg" p-id="1983" xmlns:xlink="http://www.w3.org/1999/xlink" width="200" height="200"><defs><style type="text/css"></style></defs><path d="M307.2 424.228571h146.285714v29.257143H307.2zM307.2 555.885714h146.285714v29.257143H307.2zM307.2 292.571429h146.285714v29.257142H307.2z" fill="#1296db" p-id="1984"></path><path d="M950.857143 0H73.142857C32.182857 0 0 32.182857 0 73.142857v877.714286c0 40.96 32.182857 73.142857 73.142857 73.142857h877.714286c40.96 0 73.142857-32.182857 73.142857-73.142857V73.142857c0-40.96-32.182857-73.142857-73.142857-73.142857zM746.057143 541.257143c0 8.777143-5.851429 14.628571-14.628572 14.628571h-117.028571c-8.777143 0-14.628571-5.851429-14.628571-14.628571s5.851429-14.628571 14.628571-14.628572h117.028571c8.777143 0 14.628571 5.851429 14.628572 14.628572z m-14.628572 87.771428h-117.028571c-8.777143 0-14.628571-5.851429-14.628571-14.628571s5.851429-14.628571 14.628571-14.628571h117.028571c8.777143 0 14.628571 5.851429 14.628572 14.628571s-5.851429 14.628571-14.628572 14.628571z m14.628572 58.514286c0 8.777143-5.851429 14.628571-14.628572 14.628572h-117.028571c-8.777143 0-14.628571-5.851429-14.628571-14.628572s5.851429-14.628571 14.628571-14.628571h117.028571c8.777143 0 14.628571 5.851429 14.628572 14.628571z m73.142857 131.657143c0 8.777143-5.851429 14.628571-14.628571 14.628571H219.428571c-8.777143 0-14.628571-5.851429-14.628571-14.628571V204.8c0-8.777143 5.851429-14.628571 14.628571-14.628571h321.828572c8.777143 0 14.628571 5.851429 14.628571 14.628571v248.685714h117.028572c8.777143 0 14.628571 5.851429 14.628571 14.628572s-5.851429 14.628571-14.628571 14.628571h-117.028572v321.828572h234.057143V482.742857h-33.645714c-8.777143 0-14.628571-5.851429-14.628572-14.628571s5.851429-14.628571 14.628572-14.628572H804.571429c8.777143 0 14.628571 5.851429 14.628571 14.628572v351.085714z" fill="#1296db" p-id="1985"></path><path d="M234.057143 804.571429h292.571428V219.428571H234.057143v585.142858z m43.885714-526.628572c0-8.777143 5.851429-14.628571 14.628572-14.628571h175.542857c8.777143 0 14.628571 5.851429 14.628571 14.628571v58.514286c0 8.777143-5.851429 14.628571-14.628571 14.628571H292.571429c-8.777143 0-14.628571-5.851429-14.628572-14.628571v-58.514286z m0 131.657143c0-8.777143 5.851429-14.628571 14.628572-14.628571h175.542857c8.777143 0 14.628571 5.851429 14.628571 14.628571v58.514286c0 8.777143-5.851429 14.628571-14.628571 14.628571H292.571429c-8.777143 0-14.628571-5.851429-14.628572-14.628571v-58.514286z m0 131.657143c0-8.777143 5.851429-14.628571 14.628572-14.628572h175.542857c8.777143 0 14.628571 5.851429 14.628571 14.628572v58.514286c0 8.777143-5.851429 14.628571-14.628571 14.628571H292.571429c-8.777143 0-14.628571-5.851429-14.628572-14.628571v-58.514286z" fill="#1296db" p-id="1986"></path></svg>