<?xml version="1.0" standalone="no"?><!DOCTYPE svg PUBLIC "-//W3C//DTD SVG 1.1//EN" "http://www.w3.org/Graphics/SVG/1.1/DTD/svg11.dtd"><svg t="1588316213615" class="icon" viewBox="0 0 1024 1024" version="1.1" xmlns="http://www.w3.org/2000/svg" p-id="5322" xmlns:xlink="http://www.w3.org/1999/xlink" width="200" height="200"><defs><style type="text/css"></style></defs><path d="M250.354 460.077c-7.647 0-15.192-3.517-20.07-10.153-8.133-11.073-5.752-26.645 5.321-34.782L422.21 278.044c7.562-5.555 17.72-6.379 26.085-2.147 8.37 4.236 13.76 12.82 13.76 22.198v87.945l146.878-107.996c7.568-5.555 18.51-6.379 26.868-2.147 8.37 4.236 14.543 12.82 14.543 22.198v87.945l146.035-107.996c7.562-5.555 16.878-6.379 25.243-2.147 8.37 4.236 12.917 12.82 12.917 22.198v137.099c0 13.74-11.331 24.88-25.071 24.88s-25.071-11.14-25.071-24.88v-87.945L637.839 455.245c-7.556 5.561-17.116 6.385-25.493 2.147-8.37-4.236-13.167-12.82-13.167-22.198v-87.945L451.928 455.245c-7.556 5.561-17.8 6.385-26.17 2.147-8.37-4.236-13.843-12.82-13.843-22.198v-87.945L264.992 455.245c-4.434 3.26-9.524 4.832-14.638 4.832zM747.949 932.807H288.537c-13.74 0-24.881-11.14-24.881-24.88v-176.24c0-13.74 11.14-24.88 24.88-24.88H747.95c13.74 0 24.88 11.14 24.88 24.88v176.24c0 13.74-11.14 24.88-24.88 24.88z m-434.532-49.761h409.65V756.568h-409.65v126.478z" p-id="5323" fill="#1296db"></path><path d="M934.554 933.887H88.61c-13.74 0-24.62-12.22-24.62-25.96V111.744c0-13.74 10.88-22.086 24.62-22.086h161.724c13.74 0 24.456 8.346 24.456 22.086v323.449c0 13.74-10.819 24.88-24.559 24.88s-24.56-11.14-24.56-24.88V138.778H115.157v745.99H909.24V461.119h-99.09c-13.74 0-24.88-10.308-24.88-24.048s11.14-24.047 24.88-24.047h124.404c13.74 0 24.828 8.43 24.828 22.17v472.732c0 13.741-11.09 25.96-24.83 25.96z" p-id="5324" fill="#1296db"></path><path d="M494.311 569.834h52.814v52.814h-52.814v-52.814zM721.541 569.834h52.814v52.814h-52.814v-52.814zM267.082 569.834h52.812v52.814h-52.812v-52.814z" p-id="5325" fill="#1296db"></path></svg>