<?xml version="1.0" standalone="no"?><!DOCTYPE svg PUBLIC "-//W3C//DTD SVG 1.1//EN" "http://www.w3.org/Graphics/SVG/1.1/DTD/svg11.dtd"><svg t="1588316119324" class="icon" viewBox="0 0 1024 1024" version="1.1" xmlns="http://www.w3.org/2000/svg" p-id="4283" xmlns:xlink="http://www.w3.org/1999/xlink" width="200" height="200"><defs><style type="text/css"></style></defs><path d="M960 1024H0v-64h64V480c0-54.4 41.6-96 96-96h384c54.4 0 96 41.6 96 96v480h32V448c0-54.4-41.6-96-96-96h-192V96c0-54.4 41.6-96 96-96h384c54.4 0 96 41.6 96 96v864h64v64h-64zM320 512H192v64h128v-64z m0 128H192v64h128v-64z m0 128H192v64h128v-64z m192-256h-128v64h128v-64z m0 128h-128v64h128v-64z m0 128h-128v64h128v-64z m128-640h-128v64h128V128z m0 128h-128v64h128V256z m192-128h-128v64h128V128z m0 128h-128v64h128V256z" fill="#1296db" p-id="4284"></path></svg>