<?xml version="1.0" standalone="no"?><!DOCTYPE svg PUBLIC "-//W3C//DTD SVG 1.1//EN" "http://www.w3.org/Graphics/SVG/1.1/DTD/svg11.dtd"><svg t="1588812176826" class="icon" viewBox="0 0 1024 1024" version="1.1" xmlns="http://www.w3.org/2000/svg" p-id="4677" xmlns:xlink="http://www.w3.org/1999/xlink" width="200" height="200"><defs><style type="text/css"></style></defs><path d="M0 192a192 192 0 0 1 192-192h640a192 192 0 0 1 192 192v640a192 192 0 0 1-192 192H192a192 192 0 0 1-192-192V192z m64 0v640a128 128 0 0 0 128 128h640a128 128 0 0 0 128-128V192a128 128 0 0 0-128-128H192a128 128 0 0 0-128 128z m64 96.064A160 160 0 0 1 288.064 128h447.872A160 160 0 0 1 896 288.064v447.872A160 160 0 0 1 735.936 896H288.064A160 160 0 0 1 128 735.936V288.064z m32 0v447.872A128 128 0 0 0 288.064 864h447.872A128 128 0 0 0 864 735.936V288.064A128 128 0 0 0 735.936 160H288.064A128 128 0 0 0 160 288.064zM512 800a288 288 0 1 1 0-576 288 288 0 0 1 0 576z m0-32a256 256 0 1 0 0-512 256 256 0 0 0 0 512z m0-288a32 32 0 0 1-32-32.32v-63.36a32 32 0 1 1 64 0v63.36c0 17.856-14.208 32.32-32 32.32z m32 96a32 32 0 0 1 32.32-32h63.36a32 32 0 1 1 0 64h-63.36c-17.856 0-32.32-14.208-32.32-32z m-192 0a32 32 0 0 1 32.32-32h63.36a32 32 0 1 1 0 64h-63.36c-17.856 0-32.32-14.208-32.32-32z" fill="#1296db" p-id="4678"></path></svg>